<?xml version="1.0" standalone="no"?>
<!DOCTYPE svg PUBLIC "-//W3C//DTD SVG 20010904//EN"
 "http://www.w3.org/TR/2001/REC-SVG-20010904/DTD/svg10.dtd">
<svg version="1.0" xmlns="http://www.w3.org/2000/svg"
 width="300.000000pt" height="300.000000pt" viewBox="0 0 300.000000 300.000000"
 preserveAspectRatio="xMidYMid meet">

<g transform="translate(0.000000,300.000000) scale(0.100000,-0.100000)"
fill="#000000" stroke="none">
<path d="M1144 2040 c-32 -13 -84 -79 -111 -139 -14 -31 -33 -74 -43 -96 -10
-22 -32 -74 -48 -115 -57 -142 -84 -190 -121 -216 l-36 -24 60 0 c91 0 124 26
181 148 60 127 57 122 102 234 53 131 85 182 124 201 l33 17 -60 -1 c-33 0
-69 -4 -81 -9z"/>
<path d="M1292 2032 c-59 -59 -59 -50 20 -265 45 -121 78 -197 86 -197 8 0 29
15 48 34 33 33 34 34 20 72 -44 122 -138 360 -146 368 -4 4 -17 -1 -28 -12z"/>
<path d="M1636 1932 c-115 -277 -127 -301 -167 -337 l-39 -35 50 0 c85 0 139
43 185 145 73 165 105 253 99 271 -8 21 -59 74 -71 74 -5 0 -30 -53 -57 -118z"/>
<path d="M1745 2041 c47 -19 75 -67 156 -263 124 -298 148 -328 264 -328 l60
0 -31 19 c-45 27 -63 59 -128 216 -141 339 -161 366 -283 364 -40 0 -52 -3
-38 -8z"/>
<path d="M1484 1200 c-79 -32 -95 -166 -27 -220 38 -30 103 -27 136 6 46 46
49 147 5 186 -40 35 -75 44 -114 28z m92 -35 c40 -61 22 -178 -30 -191 -37 -9
-57 -2 -79 27 -33 45 -23 155 17 181 6 4 26 8 43 8 24 0 37 -7 49 -25z"/>
<path d="M382 1078 l2 -123 5 105 6 105 43 -89 c23 -49 42 -93 42 -97 0 -29
22 3 62 89 l46 97 1 -92 c1 -91 12 -123 44 -123 8 0 7 4 -1 12 -8 8 -12 50
-12 125 0 101 -2 113 -17 113 -13 0 -29 -26 -57 -90 -21 -50 -41 -90 -45 -90
-3 0 -25 41 -48 90 -60 130 -74 124 -71 -32z"/>
<path d="M708 1194 c8 -4 12 -38 12 -120 l0 -114 64 1 c35 1 70 5 77 10 23 14
4 19 -32 9 -18 -6 -44 -10 -56 -10 -21 0 -23 5 -23 54 l0 55 53 4 52 3 -52 2
-53 2 0 50 0 50 43 0 c45 0 61 -7 70 -30 4 -9 6 -4 4 10 -2 24 -4 25 -87 27
-47 1 -79 0 -72 -3z"/>
<path d="M937 1193 c-15 -14 -6 -23 12 -13 11 5 29 10 40 10 19 0 21 -7 23
-112 2 -78 7 -113 16 -116 9 -3 12 24 12 112 l0 115 43 4 c23 2 1 4 -49 5 -50
1 -94 -1 -97 -5z"/>
<path d="M1172 1193 c15 -4 18 -20 20 -116 3 -116 20 -156 26 -59 3 43 6 52
22 52 10 0 22 -9 25 -21 11 -34 66 -89 89 -89 19 1 19 2 4 11 -10 5 -29 30
-44 55 l-26 44 26 21 c17 14 26 30 26 49 0 41 -41 60 -122 59 -35 -1 -55 -3
-46 -6z m123 -23 c24 -26 13 -68 -22 -81 -41 -15 -53 -5 -53 44 0 24 3 47 7
50 13 14 50 7 68 -13z"/>
<path d="M1693 1194 c15 -5 17 -19 17 -120 l0 -114 75 0 c41 0 75 3 75 8 0 4
-27 5 -60 4 l-59 -4 -3 114 -3 113 -30 2 c-16 1 -22 -1 -12 -3z"/>
<path d="M1904 1184 c12 -11 16 -36 16 -99 0 -78 2 -85 26 -104 28 -22 83 -28
114 -11 10 5 23 24 29 41 12 36 15 189 4 189 -5 0 -8 -43 -8 -96 0 -89 -2 -97
-24 -115 -29 -24 -73 -24 -94 -1 -13 14 -17 38 -17 90 0 86 -12 122 -40 122
-20 0 -20 -1 -6 -16z"/>
<path d="M2169 1187 c13 -6 39 -34 58 -61 l33 -49 -37 -46 c-58 -72 -60 -81
-5 -21 28 30 53 52 55 50 2 -3 14 -21 27 -40 32 -46 50 -59 80 -59 24 0 24 1
3 9 -21 8 -93 105 -93 124 0 5 16 29 36 53 20 24 34 46 32 49 -3 2 -20 -16
-39 -40 -19 -25 -37 -46 -40 -46 -3 0 -19 20 -37 45 -27 38 -37 45 -64 45 -33
0 -33 0 -9 -13z"/>
<path d="M2443 1188 c13 -11 17 -34 19 -118 l3 -105 58 -3 c35 -2 64 2 73 9
24 20 15 29 -13 13 -16 -7 -43 -14 -60 -14 l-33 0 0 54 0 55 48 4 47 3 -47 2
-48 2 0 51 0 51 43 -4 c23 -3 51 -8 62 -13 18 -8 19 -7 6 8 -11 13 -31 17 -94
17 -67 0 -78 -2 -64 -12z"/>
</g>
</svg>
